<svg width="884" height="884" viewBox="0 0 884 884" fill="none" xmlns="http://www.w3.org/2000/svg">
<path fill-rule="evenodd" clip-rule="evenodd" d="M33.9139 417.243C41.9316 356.493 51.7676 297.545 63.4216 240.398C75.994 178.748 133.558 131 195.31 131H766.719C825.28 131 869.258 174.074 869.934 232.093C870.62 291.043 865.968 358.373 855.975 434.081C846.328 507.177 833.41 574.685 817.222 636.606C799.67 703.748 735.908 754 668.268 754H130.973C59.9295 754 8.4181 698.727 13.3229 627.757C18.5943 551.484 25.458 481.312 33.9139 417.243ZM537.129 222.959C536.257 222.082 535.006 221.913 534.127 222.783C513.174 243.541 267.741 486.685 255.198 498.907C235.102 522.369 212.011 599.091 212.011 599.091C210.921 606.096 210.204 615.129 213.106 621.652C214.774 625.634 217.953 628.984 222.253 630.768C230.025 633.991 245.674 638.427 270.466 642.73C310.779 649.725 362.777 653.898 427.746 653.898C492.715 653.898 544.714 649.725 585.026 642.73C609.818 638.427 625.468 633.991 633.239 630.768C641.891 627.179 645.999 617.25 642.413 608.591C638.829 599.931 628.909 595.82 620.257 599.409C619.231 599.834 616.404 600.811 611.615 602.169C603.163 604.565 592.423 606.994 579.233 609.284C540.902 615.935 490.834 619.952 427.746 619.952C376.518 619.952 333.876 617.303 299.132 612.746C313.819 606.404 328.973 597.433 341.571 584.779C378.3 547.891 599.208 327.965 619.071 308.192C619.947 307.319 619.791 306.06 618.919 305.182L537.129 222.959ZM246.92 591.713C246.593 592.636 247.517 593.426 248.389 592.984C259.242 587.471 306.057 563.067 327.177 541.844C350.22 518.685 501.861 368.151 513.599 356.5C514.039 356.062 513.959 355.428 513.518 354.99L486.315 327.944C485.879 327.511 485.257 327.428 484.82 327.86C473.794 338.766 337.045 474.048 298.385 513.219C263.943 548.116 250.188 582.471 246.92 591.713ZM500.721 313.643C500.281 313.205 500.281 312.492 500.721 312.054L542.319 270.698C542.756 270.263 543.462 270.263 543.899 270.698L571.102 297.742C571.542 298.18 571.542 298.893 571.102 299.331L529.504 340.688C529.067 341.122 528.361 341.122 527.924 340.688L500.721 313.643Z" fill="#2C2E31"/>
</svg>
