<svg width="172" height="172" viewBox="0 0 172 172" fill="none" xmlns="http://www.w3.org/2000/svg">
<path d="M97.31 112.506C95.2706 115.682 92.2652 117.463 89.0191 117.463H89.0031C85.7886 117.436 82.785 115.645 80.8676 112.552C78.9328 109.431 77.5807 105.225 77.1575 101.014C76.2763 92.24 77.3033 84.1979 81.2876 75.4673C85.1761 66.9457 91.4221 58.3344 91.4221 58.3344C91.4221 58.3344 108.116 92.1489 97.31 112.506ZM152.468 54.8456C146.937 41.2744 138.988 33.0748 122.428 31.2675C114.302 30.3805 102.472 32.0277 95.9066 34.059C89.9806 25.5299 84.3865 23.3587 77.809 22.2496C68.0881 20.6099 54.9978 27.3424 47.9403 33.8951C39.9474 41.3157 36.9223 47.1946 32.0893 56.9394C26.2954 68.622 22.5092 81.0335 19.7175 93.7933C16.4149 108.89 14.8648 121.925 15.0092 137.374C15.023 138.843 14.7992 141.913 16.2018 142.376C18.1219 142.575 29.1243 143.822 30.6359 143.658C32.6212 143.503 32.4827 142.653 32.507 138.427C32.6372 115.967 35.8068 95.341 44.2512 74.4667C48.2199 64.6571 52.8003 55.1142 59.7354 47.0922C62.0416 44.4251 64.9672 41.9552 68.0973 40.4733C74.4336 37.4737 80.057 39.0036 82.6136 43.7363C79.8429 46.3217 74.192 53.3885 72.2035 56.5304C66.9222 64.874 64.3148 72.6842 61.8953 80.7391C56.708 98.0114 59.3911 116.726 68.1491 125.272C76.4955 133.415 87.5107 134.13 94.9456 133.128C105.965 131.641 111.741 125.998 115.913 113.961C121.367 98.2232 117.7 83 113.394 70.1833C111.901 65.7404 104.075 49.231 104.075 49.231C104.075 49.231 107.278 46.6888 113.971 47.304C117.137 47.5951 120.381 47.9337 123.454 49.1963C129.72 51.7695 134.684 56.6896 137.074 62.6948C141.3 73.313 141.24 84.8712 136.885 99.0712C132.44 113.562 124.696 126.355 116.987 138.02C116.071 139.257 115.721 140.221 115.889 141.004C116.041 141.712 116.657 142.367 117.722 142.946C119.273 143.926 120.626 144.856 121.935 145.755C123.698 146.967 125.363 148.111 127.207 149.177C128.159 149.835 129.032 150.106 129.725 149.963C130.223 149.862 130.63 149.56 130.969 149.038C139.48 135.509 148.068 120.684 153.197 104.037C158.794 85.8723 158.556 69.7819 152.468 54.8456Z" fill="#62EF62"/>
</svg>
